<?xml version="1.0" encoding="utf-8"?>
<!-- Generator: Adobe Illustrator 22.1.0, SVG Export Plug-In . SVG Version: 6.00 Build 0)  -->
<svg version="1.1" id="Layer_1" xmlns="http://www.w3.org/2000/svg" xmlns:xlink="http://www.w3.org/1999/xlink" x="0px" y="0px"
	 viewBox="0 0 100 100" style="enable-background:new 0 0 100 100;" xml:space="preserve">
<style type="text/css">
	.Drop_x0020_Shadow{fill:none;}
	.Round_x0020_Corners_x0020_2_x0020_pt{fill:#FFFFFF;stroke:#000000;stroke-miterlimit:10;}
	.Live_x0020_Reflect_x0020_X{fill:none;}
	.Bevel_x0020_Soft{fill:url(#SVGID_1_);}
	.Dusk{fill:#FFFFFF;}
	.Foliage_GS{fill:#FFE501;}
	.Pompadour_GS{fill-rule:evenodd;clip-rule:evenodd;fill:#5BA4CC;}
	.st0{fill:#E9232F;}
	.st1{fill:#E9242F;}
	.st2{fill:#E9202F;}
	.st3{fill:#D80F2F;}
	.st4{fill:#C80D2A;}
	.st5{fill:#A20D28;}
	.st6{fill:#A10F28;}
	.st7{fill:#C30D2B;}
	.st8{fill:#D1122F;}
</style>
<linearGradient id="SVGID_1_" gradientUnits="userSpaceOnUse" x1="0" y1="0" x2="0.7071" y2="0.7071">
	<stop  offset="0" style="stop-color:#E1DFDF"/>
	<stop  offset="0.1638" style="stop-color:#DDDBDB"/>
	<stop  offset="0.3317" style="stop-color:#D1CFCF"/>
	<stop  offset="0.5016" style="stop-color:#BCBABA"/>
	<stop  offset="0.6727" style="stop-color:#A09D9D"/>
	<stop  offset="0.8432" style="stop-color:#7B7979"/>
	<stop  offset="1" style="stop-color:#535050"/>
</linearGradient>
<g>
	<g>
		<path class="st0" d="M39.3,51.3c-2.6-5.2-6.4-9.7-8.5-15.3c-0.6-1.5-1.3-3.1-1.3-4.7c0.3-2.4,0.2-4.8,0-7.2
			c0.1-0.3,0.2-0.5,0.4-0.8c2.3,0.3,4.2-0.7,6-2.1c0.3-0.1,0.6-0.1,0.9,0c0.5,0.3,0.9,0.8,1.4,1.3c3.4,5.5,6.9,11,11,16.1
			c1.1,2.3,2.9,4.2,4.5,6.2c1.6,2,2.7,4.1,3.3,6.6c6.1,8.4,12.2,16.9,18.3,25.3c0.8,1.1,0.6,2.2,0.2,3.4c-1.5,3.8-2.9,7.6-4.3,11.5
			c-0.8,2.2-1.4,1.6-2.4,0.1c-6.1-8.6-12.2-17.2-18.3-25.7c-0.7-1-1.5-1.9-2.3-2.8C44.5,59.6,41.8,55.5,39.3,51.3z"/>
		<path class="st1" d="M45.1,66.7c-6,8.5-12,17.1-17.9,25.6c-0.7,1-1.1,1.3-1.6-0.1c-1.6-4.2-3.3-8.5-4.9-12.7
			c-0.4-1-0.3-1.9,0.4-2.8c4.7-6.4,9.4-12.9,14.1-19.3c2-1.5,3.8-1.1,5.2,0.7C42.5,60.6,45.3,62.8,45.1,66.7z"/>
		<path class="st2" d="M65.5,20.5c2.7,5.1,2.1,10.3-0.1,15.4c-1.4,3.4-3,6.6-5.3,9.6c-1.2,0.8-2.6,1-3.7,0.2c-3-2.4-6.3-4.5-7.1-8.6
			c0-1.2,0.6-2.1,1.2-3c3.3-4.6,6-9.5,8.6-14.5c1.7-3.6,2.2-3.7,4.8-0.6C64.4,19.5,64.7,20.2,65.5,20.5z"/>
		<path class="st3" d="M40.6,7.8c5.7-2,11.2-2.1,16.7,0.8c-0.1,2.9,0.2,5.9-1.8,8.4c-4.9-0.9-9.9,0.1-14.8-0.7
			C38.9,13.4,39.1,10.6,40.6,7.8z"/>
		<path class="st4" d="M45.1,66.7c-1-2.6-2.6-4.7-4.2-6.9c-1.5-2.1-3.2-3.1-5.8-2.4c0.1-0.2,0.2-0.4,0.4-0.6
			c0.1-0.3,0.2-0.4,0.5-0.6c1.1-1.6,2.2-3.2,3.4-4.9c3.6,3.4,6.3,7.5,8.7,11.8C47,64.3,46,65.5,45.1,66.7z"/>
		<path class="st5" d="M55.8,16.4c0.3-2.6-0.2-5.4,1.5-7.8c4.3,2.9,5.9,7.6,8.2,11.9c-0.9,0-1.3-0.7-1.9-1.2
			c-2.6-2.1-2.6-2.1-3.7,0.5C58.4,18.8,56.6,18.2,55.8,16.4z"/>
		<path class="st6" d="M40.6,7.8c0.4,2.7-0.9,5.6,0.7,8.2c-0.8,2.2-2.9,2.4-4.7,3.1c-2.4-0.5-2-2.7-2.7-4.3
			C35.4,11.7,36.9,8.7,40.6,7.8z"/>
		<path class="st7" d="M49.9,36.6c1.4,4.6,6.1,8.7,10.3,8.9c-1.1,1.6-2.1,3.2-3.2,4.8c-0.2,0.2-0.3,0.4-0.3,0.6
			c0.1,0.2,0.1,0.3,0.1,0.5c-2.2-4.7-6.5-8-8.3-12.9C48,37.2,48.6,36.6,49.9,36.6z"/>
		<path class="st8" d="M33.9,14.7c2.4,0.3,0.4,3.5,2.6,3.9c0.8,0.8,0.8,1.6,0.2,2.5c-0.7,0.6-1.5,1.2-2.2,1.9
			c-1.5,1.6-3.1,1.8-4.7,0.3C30.3,20,32.1,17.4,33.9,14.7z"/>
		<path class="st8" d="M29.4,24.1c0.7,2.4,0.8,4.8,0,7.2C28.7,28.9,28.8,26.5,29.4,24.1z"/>
		<path class="st0" d="M56.7,50.8c0.1-0.2,0.2-0.4,0.3-0.6C56.9,50.5,56.8,50.7,56.7,50.8z"/>
		<path class="st1" d="M35.9,56.2c-0.2,0.2-0.3,0.4-0.5,0.6C35.6,56.5,35.7,56.3,35.9,56.2z"/>
		<path class="st8" d="M36.6,21.2c0.7,0.2,0.7,0.8,0.8,1.4C36.7,22.4,36.6,21.9,36.6,21.2z"/>
	</g>
</g>
</svg>
