<?xml version="1.0" encoding="utf-8"?>
<!-- Generator: Adobe Illustrator 22.1.0, SVG Export Plug-In . SVG Version: 6.00 Build 0)  -->
<svg version="1.1" id="Layer_1" xmlns="http://www.w3.org/2000/svg" xmlns:xlink="http://www.w3.org/1999/xlink" x="0px" y="0px"
	 viewBox="0 0 200 200" style="enable-background:new 0 0 200 200;" xml:space="preserve">
<style type="text/css">
	.st0{fill:#ED265D;}
</style>
<path class="st0" d="M110,195.2c0.8-1.5,1.3-2.4,1.7-3.3c4.4-11.9,2.9-23.6-1.4-35.1c-6.1-15.8-18-26.9-30.9-37
	c-12-9.5-24.6-18.6-35.9-28.8c-10.9-9.8-15.4-23-13.2-37.6C34.2,26,61.5,11.7,86.9,23.5c4.3,2,8.1,4.6,12.8,7.3
	c-8.3-10.4-18.5-16.2-30.6-18.6C29.5,4.4-2,47.9,11.2,81.2c7.6,19.3,21.3,32.9,39.1,42.6c8.4,4.6,17.3,8.5,25.7,13.2
	C98.3,149.4,113.4,166.5,110,195.2z"/>
<path class="st0" d="M102.2,32.8c4-3.4,8-7,12.1-10.3c20.3-15.6,50.2-12.3,60.2,20c2.1,6.9,1.4,13.8-1.1,20.6
	c-5.2,14.3-15.3,24.6-27.1,33.4c-5.1,3.8-10.8,7-15.9,10.9c-6.2,4.7-11.1,10.5-10.7,19.1c1.7-9.6,9-14.1,16.7-18
	c1.6-0.8,3.3-1.5,4.9-2.2c14.7-6.2,27.7-15.1,37.9-27.6c21.2-26.4,6-67.4-27-72.5C131.7,3.1,115.3,12.7,102.2,32.8z"/>
</svg>
