<?xml version="1.0" encoding="utf-8"?>
<!-- Generator: Adobe Illustrator 22.1.0, SVG Export Plug-In . SVG Version: 6.00 Build 0)  -->
<svg version="1.1" id="Layer_1" xmlns="http://www.w3.org/2000/svg" xmlns:xlink="http://www.w3.org/1999/xlink" x="0px" y="0px"
	 viewBox="0 0 50 25" style="enable-background:new 0 0 50 25;" xml:space="preserve">
<style type="text/css">
	.st0{fill:#FF2B75;}
</style>
<path class="st0" d="M24.8,23.7l0.4,0c12.2,0,10.7-7.9,22.3-13c-6.8,0-14-9.4-18-9.4c-4,0-4.3,4.1-4.3,4.1l-0.1,0.4
	c0,0-0.5-4.4-4.5-4.4c-4,0-11.2,9.4-18,9.4C14.1,15.8,12.7,23.7,24.8,23.7L24.8,23.7z M37.1,10.9c-4.7,1.2-6.3,3.8-11.9,3.8
	c-5.3,0-10-3.8-11.9-3.8C13.3,10.9,31.6,11.1,37.1,10.9L37.1,10.9z M37.1,10.9"/>
</svg>
