<?xml version="1.0" encoding="utf-8"?>
<!-- Generator: Adobe Illustrator 22.1.0, SVG Export Plug-In . SVG Version: 6.00 Build 0)  -->
<svg version="1.1" id="Layer_1" xmlns="http://www.w3.org/2000/svg" xmlns:xlink="http://www.w3.org/1999/xlink" x="0px" y="0px"
	 viewBox="0 0 600 200" style="enable-background:new 0 0 600 200;" xml:space="preserve">
<style type="text/css">
	.st0{display:none;stroke:#000000;stroke-miterlimit:10;}
	.st1{fill-rule:evenodd;clip-rule:evenodd;fill:url(#SVGID_1_);}
	.st2{fill-rule:evenodd;clip-rule:evenodd;fill:url(#SVGID_2_);}
	.st3{fill-rule:evenodd;clip-rule:evenodd;fill:#FFFFFF;}
	.st4{fill:#FFFFFF;stroke:#FFFFFF;stroke-width:2;stroke-miterlimit:10;}
</style>
<rect x="-21.5" y="-25" class="st0" width="631.5" height="317.5"/>
<linearGradient id="SVGID_1_" gradientUnits="userSpaceOnUse" x1="337.7791" y1="92.6023" x2="418.7318" y2="92.6023">
	<stop  offset="0" style="stop-color:#F4136B"/>
	<stop  offset="0.1515" style="stop-color:#ED126C"/>
	<stop  offset="0.373" style="stop-color:#D90F6F"/>
	<stop  offset="0.6372" style="stop-color:#B90A75"/>
	<stop  offset="0.9322" style="stop-color:#8D047C"/>
	<stop  offset="1" style="stop-color:#82027E"/>
</linearGradient>
<path class="st1" d="M415.4,162.7c0.6-1.1,1-1.8,1.3-2.5c3.3-9,2.3-18-1.1-26.7c-4.7-12.1-13.8-20.5-23.6-28.3
	c-9.2-7.3-18.7-14.1-27.4-22c-8.3-7.5-11.7-17.6-10.1-28.7c3-20.9,23.8-31.8,43.2-22.8c3.2,1.5,6.2,3.5,9.8,5.6
	c-6.3-7.9-14.1-12.3-23.3-14.1c-30-5.9-54,27.2-44,52.6c5.8,14.8,16.2,25,29.8,32.5c6.4,3.5,13.1,6.5,19.6,10.1
	C406.6,127.9,418.1,140.8,415.4,162.7z"/>
<linearGradient id="SVGID_2_" gradientUnits="userSpaceOnUse" x1="458.8708" y1="83.8214" x2="410.7544" y2="35.705">
	<stop  offset="0" style="stop-color:#F4136B"/>
	<stop  offset="0.1515" style="stop-color:#ED126C"/>
	<stop  offset="0.373" style="stop-color:#D90F6F"/>
	<stop  offset="0.6372" style="stop-color:#B90A75"/>
	<stop  offset="0.9322" style="stop-color:#8D047C"/>
	<stop  offset="1" style="stop-color:#82027E"/>
</linearGradient>
<path class="st2" d="M409.5,38.9c3.1-2.6,6.1-5.3,9.3-7.8c15.5-11.9,38.3-9.4,45.9,15.2c1.6,5.2,1,10.5-0.9,15.7
	c-4,10.9-11.6,18.8-20.7,25.5c-3.9,2.9-8.3,5.4-12.2,8.3c-4.8,3.6-8.5,8-8.1,14.6c1.3-7.3,6.8-10.7,12.7-13.7
	c1.2-0.6,2.5-1.1,3.7-1.7c11.3-4.8,21.2-11.5,28.9-21.1c16.1-20.2,4.6-51.4-20.6-55.3C432,16.2,419.5,23.6,409.5,38.9z"/>
<path class="st3" d="M392.5,173.9c-4.8,0.4-6.7,0.6-13.8-0.3c-7.7-2.2-9.3-3-14-5.4c-3.2-1.6-6.1-3.7-9.6-5.9
	c6,8.2,13.7,12.8,22.8,14.9c13.5,3.2,26.1-1.8,34.9-10.5C407,170.9,399.5,173.3,392.5,173.9z"/>
<g>
	<path class="st4" d="M74.6,96c0,3.1-1,6.2-2.9,9.3c-2.8,4.5-6.9,7.9-12.2,10.3c-4.7,2-10,3.1-15.9,3.1H4V73.3h39.7
		c5.9,0,11.2,1,15.9,3.1c5.3,2.3,9.4,5.8,12.2,10.4C73.7,89.9,74.6,93,74.6,96z M43.6,115.9c5.1,0,9.8-0.9,14.1-2.8
		c4.6-2,8.3-5,11-9c2-2.9,2.9-5.5,2.9-8c0-2.9-1-5.8-2.9-8.7c-2.5-3.9-6.2-6.7-11.1-8.7c-4.1-1.7-8.8-2.5-14-2.5H7v39.7H43.6z"/>
	<path class="st4" d="M86.2,73.3h3v45.4h-3V73.3z"/>
	<path class="st4" d="M135.3,113.4l30.4-40.1h4.1l-34.6,45.4L99.2,73.3h4.1L135.3,113.4z"/>
	<path class="st4" d="M181.4,73.3h3v45.4h-3V73.3z"/>
	<path class="st4" d="M194.4,73.3h3l64.7,42.8V73.3h3v45.4h-2.9l-64.8-42.9l0.1,42.9h-3V73.3z"/>
	<path class="st4" d="M302.5,90.3l-22.9,28.4h-3.9l37.1-45.4l36.1,45.4h-3l-22.7-28.4H302.5z M304.8,87.3h15.9l-7.9-9.9L304.8,87.3z
		"/>
</g>
<g>
	<path class="st4" d="M430.4,121.4h3.3v31.4c0,1.5,0.7,3.1,2.1,4.9c3.1,4,8.1,6.9,15,8.8c5.3,1.5,11.2,2.2,17.6,2.2
		c6.4,0,12.3-0.7,17.6-2.2c6.9-1.9,11.9-4.8,15-8.8c1.4-1.8,2.1-3.4,2.1-4.9v-31.4h3.3v31.4c0,2-0.8,4.1-2.5,6.4
		c-6,8.1-17.8,12.1-35.4,12.1c-17.7,0-29.5-4-35.4-12.1c-1.7-2.3-2.5-4.4-2.5-6.4V121.4z"/>
	<path class="st4" d="M549.1,140.1l47.5,31.2h-5.2l-47.5-31.2h-21.6v31.2H519v-49.9h67.1c2.8,0,5.3,0.8,7.3,2.4
		c2.2,1.7,3.2,3.9,3.2,6.6c0,2.9-1,5.3-3,7c-2,1.8-4.5,2.7-7.5,2.7H549.1z M586.1,136.8c2,0,3.7-0.6,5.1-1.7
		c1.4-1.1,2.1-2.7,2.1-4.6c0-1.7-0.7-3.1-2.2-4.2c-1.5-1.1-3.1-1.6-5-1.6h-63.9v12.2H586.1z"/>
</g>
</svg>
