<?xml version="1.0" encoding="utf-8"?>
<!-- Generator: Adobe Illustrator 22.1.0, SVG Export Plug-In . SVG Version: 6.00 Build 0)  -->
<svg version="1.1" id="Layer_1" xmlns="http://www.w3.org/2000/svg" xmlns:xlink="http://www.w3.org/1999/xlink" x="0px" y="0px"
	 viewBox="0 0 100 100" style="enable-background:new 0 0 100 100;" xml:space="preserve">
<style type="text/css">
	.st0{fill:#FFFFFF;}
	.st1{fill:#ED265D;}
</style>
<g>
	<g>
		<path class="st0" d="M25.9,38.8h-0.1l-6,4.1c-0.3,0.2-0.6,0.1-0.6-0.3v-6.9c0-0.3,0.1-0.6,0.4-0.8l6.3-4.6c0.3-0.2,0.6-0.3,1-0.3
			h6.2c0.3,0,0.6,0.2,0.6,0.6v36.7c0,0.3-0.2,0.6-0.6,0.6h-6.7c-0.3,0-0.6-0.2-0.6-0.6V38.8H25.9z"/>
	</g>
	<g>
		<path class="st0" d="M46.4,48L46.4,48c-1.8-1.4-3.7-4.1-3.7-7.7c0-5.8,4.3-11,12-11s12,5.2,12,11c0,3.6-1.9,6.3-3.7,7.6V48
			c2.4,1.6,4.5,4.6,4.5,8.8c0,7-5.5,11.5-12.8,11.5s-12.8-4.6-12.8-11.5C41.9,52.7,44,49.7,46.4,48z M54.7,61.8
			c3.1,0,5.1-2.2,5.1-5.3s-2.1-5.2-5.1-5.2c-3.1,0-5.1,2.2-5.1,5.2C49.6,59.7,51.6,61.8,54.7,61.8z M59,40.4c0-2.4-1.7-4.5-4.3-4.5
			s-4.3,2-4.3,4.5c0,2.4,1.7,4.4,4.3,4.4C57.3,44.8,59,42.8,59,40.4z"/>
	</g>
</g>
<g>
	<path class="st1" d="M49.4,98.4c-26.8,0-48.7-21.8-48.7-48.7C0.7,22.9,22.5,1,49.4,1s48.7,21.8,48.7,48.7
		C98.1,76.6,76.3,98.4,49.4,98.4z M49.4,8.1c-23,0-41.7,18.7-41.7,41.7s18.7,41.7,41.7,41.7s41.7-18.7,41.7-41.7
		C91.1,26.8,72.4,8.1,49.4,8.1z"/>
</g>
<g>
	<path class="st1" d="M70,50.3v-3.7c0-0.2,0.1-0.3,0.3-0.3h3.6c0.1,0,0.2-0.1,0.2-0.2v-3.7c0-0.2,0.1-0.3,0.3-0.3h3.8
		c0.2,0,0.3,0.1,0.3,0.3v3.7c0,0.1,0.1,0.2,0.2,0.2h3.6c0.2,0,0.3,0.1,0.3,0.3v3.7c0,0.2-0.1,0.3-0.3,0.3h-3.6
		c-0.1,0-0.2,0.1-0.2,0.2v3.7c0,0.2-0.1,0.3-0.3,0.3h-3.8c-0.2,0-0.3-0.1-0.3-0.3v-3.7c0-0.1-0.1-0.2-0.2-0.2h-3.6
		C70.1,50.6,70,50.5,70,50.3z"/>
</g>
</svg>
